<?xml version="1.0" encoding="UTF-8" ?>
<!DOCTYPE svg PUBLIC "-//W3C//DTD SVG 1.1//EN" "http://www.w3.org/Graphics/SVG/1.1/DTD/svg11.dtd">
<svg width="687pt" height="575pt" viewBox="0 0 687 575" version="1.1" xmlns="http://www.w3.org/2000/svg">
<g id="#ffffffff">
<path fill="#ffffff" opacity="1.00" d=" M 335.77 27.84 C 338.12 24.37 342.90 22.25 346.89 24.13 C 350.57 25.60 352.39 29.36 354.66 32.35 C 390.09 81.56 425.76 130.59 461.22 179.76 C 473.45 197.07 486.07 214.10 499.16 230.76 C 500.88 232.40 502.23 234.32 503.11 236.54 C 501.64 242.16 497.15 246.11 493.08 249.92 C 497.92 253.21 503.72 254.91 508.00 259.01 C 528.38 273.81 536.06 303.06 526.02 326.11 C 536.01 325.77 546.01 326.25 556.00 326.18 C 562.69 326.16 569.19 329.35 573.39 334.54 C 601.04 372.39 628.38 410.50 655.66 448.64 C 641.57 448.72 627.48 449.31 613.39 448.96 C 620.64 457.66 621.63 469.25 623.10 480.00 C 622.45 485.88 621.82 491.99 619.26 497.39 C 615.53 509.20 606.22 518.67 595.43 524.41 C 586.73 528.01 577.52 530.79 568.01 530.67 C 540.04 529.57 512.00 530.94 484.05 529.36 C 479.37 529.63 474.83 528.33 470.27 527.52 C 466.10 524.79 463.97 519.95 460.10 516.88 C 457.87 515.47 456.69 512.99 454.55 511.47 C 454.29 517.17 454.35 522.89 454.26 528.60 C 433.76 528.65 413.26 528.61 392.76 528.60 C 392.57 522.14 393.07 515.57 391.96 509.20 C 388.52 512.37 385.83 516.45 381.51 518.55 C 373.14 524.67 362.89 527.33 352.85 529.21 C 347.25 529.65 341.61 529.37 336.00 529.41 C 323.40 528.20 310.82 524.17 300.75 516.35 C 297.12 512.64 292.84 509.53 290.24 504.92 C 286.75 504.49 285.17 507.93 282.88 509.83 C 280.17 512.55 276.63 514.21 273.80 516.77 C 265.60 522.64 255.73 525.27 246.08 527.66 C 233.46 529.45 220.23 529.31 208.09 525.10 C 197.85 522.73 188.92 516.78 180.94 510.14 C 177.30 506.68 174.91 502.13 171.18 498.73 C 170.93 508.67 170.89 518.62 171.18 528.55 C 146.92 528.71 122.65 528.58 98.39 528.61 C 98.38 502.82 98.45 477.03 98.38 451.24 C 75.59 451.22 52.81 451.30 30.02 451.20 C 44.43 430.30 59.41 409.79 74.23 389.18 C 76.39 386.05 78.66 383.01 81.14 380.13 C 88.87 368.93 97.00 358.02 104.87 346.92 C 107.21 343.32 110.76 340.72 112.92 336.98 C 116.84 330.39 124.30 326.16 131.97 326.18 C 141.64 326.26 151.31 325.76 160.98 326.11 C 150.94 303.06 158.61 273.82 178.98 259.02 C 183.27 254.93 189.03 253.19 193.89 249.98 C 190.10 246.14 185.46 242.49 184.10 237.00 C 184.22 234.95 185.48 233.14 186.90 231.74 C 201.29 214.06 214.48 195.41 227.95 177.02 C 263.88 127.28 299.93 77.63 335.77 27.84 M 339.85 46.93 C 339.80 80.64 340.47 114.32 340.39 148.03 C 340.32 163.36 339.15 178.65 337.66 193.90 C 335.63 212.62 331.46 231.16 324.42 248.65 C 337.22 248.63 350.02 248.77 362.82 248.58 C 350.61 219.68 348.24 187.97 346.86 156.98 C 346.67 139.68 346.82 122.37 346.90 105.07 C 347.37 98.04 346.43 91.01 347.26 84.00 C 347.46 71.98 347.33 59.96 347.46 47.95 C 347.73 45.10 345.62 43.05 343.74 41.27 C 341.94 42.70 339.74 44.35 339.85 46.93 M 332.87 57.97 C 332.76 64.99 332.96 72.00 332.87 79.01 C 331.51 103.91 329.03 128.91 322.44 153.04 C 316.13 176.35 306.91 199.14 292.89 218.93 C 286.08 229.69 277.24 238.92 268.98 248.54 C 279.42 248.78 289.88 248.69 300.33 248.59 C 315.87 226.24 325.03 199.94 329.29 173.19 C 332.92 152.63 335.46 131.88 336.78 111.05 C 337.15 100.03 338.43 89.04 338.17 78.01 C 338.45 68.98 338.75 59.87 337.35 50.91 C 334.98 52.49 332.69 54.92 332.87 57.97 M 350.01 50.78 C 348.52 56.73 348.96 62.91 348.87 68.98 C 349.19 79.29 348.69 89.63 349.82 99.90 C 350.86 126.81 354.17 153.61 359.07 180.08 C 363.64 204.41 372.67 228.06 386.70 248.53 C 397.19 248.73 407.69 248.77 418.18 248.53 C 415.72 245.42 412.96 242.59 410.32 239.64 C 398.06 225.76 387.50 210.28 379.47 193.58 C 359.68 151.80 353.60 104.85 354.39 59.02 C 354.81 55.55 352.41 52.89 350.01 50.78 M 325.25 67.27 C 308.74 92.28 291.22 116.60 274.48 141.46 C 253.93 171.84 232.67 201.74 212.16 232.16 C 210.22 235.23 207.29 238.13 207.42 242.03 C 207.48 245.11 209.65 248.62 213.03 248.59 C 221.36 248.77 229.69 248.58 238.01 248.68 C 239.89 248.65 241.98 248.89 243.56 247.64 C 252.91 241.08 261.88 233.96 270.15 226.08 C 283.00 212.99 294.58 198.53 303.41 182.40 C 318.07 156.38 325.68 126.98 329.29 97.49 C 330.53 85.62 331.61 73.65 330.45 61.73 C 328.10 62.90 326.69 65.18 325.25 67.27 M 356.75 84.95 C 357.78 102.23 360.83 119.37 365.25 136.10 C 373.10 166.57 388.31 195.19 409.71 218.31 C 419.42 229.37 430.95 238.66 442.90 247.18 C 444.33 248.35 446.12 248.86 447.96 248.69 C 457.15 248.48 466.37 248.97 475.54 248.45 C 479.77 246.85 480.80 241.04 478.52 237.45 C 459.79 209.33 440.13 181.84 421.18 153.87 C 403.03 127.04 384.33 100.59 366.19 73.75 C 363.28 69.57 360.85 65.01 357.11 61.47 C 355.47 69.18 356.19 77.15 356.75 84.95 M 172.79 282.81 C 169.21 287.16 167.61 292.72 166.44 298.12 C 164.89 307.12 169.08 316.25 175.18 322.69 C 183.66 330.91 192.60 338.64 201.21 346.72 C 182.15 346.98 163.10 346.66 144.05 347.00 C 141.31 347.19 138.25 346.42 135.71 347.62 C 127.80 357.91 120.08 368.37 112.58 378.97 C 146.02 379.47 179.47 379.31 212.92 379.38 C 218.99 379.24 225.52 379.22 230.80 375.80 C 234.31 373.40 237.40 370.38 239.98 367.01 C 246.50 358.60 246.60 346.46 242.08 337.12 C 237.90 328.36 229.74 322.68 222.79 316.29 C 218.26 311.75 213.43 307.55 208.74 303.18 C 224.87 302.99 241.00 303.10 257.13 303.10 C 257.16 328.51 257.13 353.92 257.14 379.33 C 268.22 379.34 279.30 379.35 290.37 379.35 C 290.41 353.94 290.32 328.52 290.39 303.11 C 301.61 303.05 312.83 303.12 324.06 303.08 C 324.01 292.47 324.03 281.86 324.05 271.26 C 281.70 271.28 239.35 271.18 197.00 271.29 C 187.74 271.34 178.79 275.85 172.79 282.81 M 338.22 271.23 C 335.95 278.84 333.14 286.28 330.94 293.91 C 329.07 301.06 325.69 307.71 324.02 314.92 C 316.95 336.67 309.71 358.37 302.06 379.92 C 313.93 380.01 325.80 379.97 337.67 379.87 C 339.19 374.45 340.69 369.01 342.70 363.76 C 352.19 363.96 361.69 363.75 371.19 363.84 C 373.09 369.04 374.33 374.46 375.54 379.86 C 387.47 380.02 399.40 379.98 411.34 379.92 C 399.23 343.69 386.83 307.56 375.03 271.25 C 362.76 271.27 350.49 271.27 338.22 271.23 M 414.16 271.26 C 414.13 307.28 414.17 343.31 414.15 379.34 C 426.14 379.34 438.12 379.34 450.11 379.34 C 450.12 369.28 450.11 359.22 450.11 349.16 C 456.49 355.38 463.31 361.12 469.96 367.03 C 474.77 371.31 479.53 375.98 485.68 378.27 C 489.26 379.74 493.21 379.29 497.00 379.33 C 526.43 379.31 555.87 379.40 585.31 379.18 C 577.15 368.16 568.06 357.87 559.78 346.94 C 540.17 346.72 520.55 346.94 500.94 346.75 C 498.53 346.45 495.24 345.91 494.09 343.56 C 497.88 341.10 502.29 339.70 505.78 336.76 C 516.03 328.71 521.47 314.82 519.13 301.98 C 516.16 285.42 500.95 271.90 484.08 271.30 C 460.78 271.14 437.47 271.29 414.16 271.26 M 185.63 443.52 C 183.49 450.84 183.92 458.57 184.34 466.09 C 185.66 485.94 200.36 503.09 218.32 510.57 C 221.62 512.17 225.33 512.63 228.62 514.24 C 237.83 514.73 247.34 514.85 256.08 511.44 C 272.02 505.72 285.43 492.62 290.51 476.34 C 295.02 461.03 293.50 443.68 284.95 430.02 C 277.67 417.50 265.00 408.46 251.01 405.00 C 223.56 397.74 192.88 416.28 185.63 443.52 M 92.24 407.41 C 84.99 417.24 77.57 426.95 70.58 436.97 C 85.43 437.14 100.28 437.04 115.14 437.08 C 115.14 462.96 115.13 488.84 115.14 514.72 C 126.27 514.69 137.39 514.81 148.52 514.66 C 148.40 488.82 148.54 462.98 148.43 437.14 C 160.92 436.99 173.42 437.11 185.92 437.06 C 185.88 426.45 185.90 415.85 185.91 405.24 C 155.63 405.26 125.34 405.24 95.06 405.25 C 93.63 404.99 93.03 406.57 92.24 407.41 M 301.02 405.24 C 301.05 425.49 300.85 445.74 301.04 465.99 C 301.12 471.32 300.78 476.76 302.30 481.94 C 306.21 496.21 317.98 507.72 331.93 512.27 C 342.07 515.61 353.43 516.02 363.52 512.30 C 380.62 507.41 394.73 491.15 394.81 472.98 C 394.89 450.40 394.80 427.83 394.83 405.25 C 383.30 405.25 371.76 405.23 360.23 405.25 C 360.13 426.48 360.33 447.70 360.17 468.92 C 360.19 473.94 358.74 479.53 354.05 482.17 C 347.32 487.39 336.06 481.53 336.30 473.07 C 335.89 450.47 336.32 427.85 336.17 405.24 C 324.45 405.25 312.73 405.26 301.02 405.24 M 405.30 405.28 C 405.27 441.74 405.29 478.21 405.28 514.67 C 417.33 514.69 429.39 514.88 441.44 514.58 C 441.10 504.31 441.39 494.03 441.42 483.75 C 449.97 490.73 457.97 498.34 466.12 505.78 C 472.80 511.92 482.02 514.91 491.03 514.76 C 515.68 514.70 540.33 514.73 564.99 514.73 C 574.26 514.60 584.40 513.10 591.29 506.29 C 600.52 498.10 603.17 483.88 598.25 472.70 C 596.06 467.64 592.48 463.31 588.38 459.67 C 580.43 452.21 572.12 445.11 564.56 437.23 C 584.16 436.96 603.77 437.13 623.38 437.05 C 615.68 427.30 607.80 417.69 600.12 407.92 C 599.05 406.71 597.97 405.01 596.11 405.27 C 582.76 405.09 569.40 405.33 556.05 405.22 C 549.40 405.00 542.79 406.79 536.95 409.92 C 521.90 417.42 517.07 439.43 527.25 452.70 C 535.39 463.61 547.41 470.62 556.46 480.66 C 536.31 480.93 516.15 480.76 495.99 480.86 C 492.17 480.91 488.26 480.22 484.99 478.15 C 489.31 475.31 494.41 473.76 498.34 470.32 C 503.36 465.82 507.27 459.98 509.40 453.58 C 512.37 442.70 510.71 430.22 503.84 421.10 C 497.48 411.61 486.18 406.29 475.04 405.30 C 451.79 405.15 428.54 405.25 405.30 405.28 Z" />
<path fill="#ffffff" opacity="1.00" d=" M 449.92 301.62 C 459.27 301.58 468.63 301.19 477.98 301.62 C 483.29 301.58 488.10 307.28 486.49 312.49 C 484.90 316.21 481.03 318.85 477.00 319.04 C 467.99 319.85 458.95 319.32 449.92 319.36 C 449.89 313.44 449.90 307.53 449.92 301.62 Z" />
<path fill="#ffffff" opacity="1.00" d=" M 356.56 309.71 C 359.66 318.12 362.15 326.79 364.03 335.56 C 359.16 335.60 354.29 335.63 349.43 335.55 C 351.66 326.90 353.86 318.23 356.56 309.71 Z" />
<path fill="#ffffff" opacity="1.00" d=" M 232.47 436.55 C 238.01 435.44 244.41 435.20 249.16 438.78 C 255.40 442.80 260.51 449.26 260.95 456.90 C 262.37 469.59 251.52 481.71 239.03 482.68 C 229.07 482.16 219.12 475.23 216.82 465.22 C 215.76 460.14 215.38 454.52 217.76 449.73 C 220.63 443.61 226.12 438.80 232.47 436.55 Z" />
<path fill="#ffffff" opacity="1.00" d=" M 441.08 435.59 C 450.39 435.50 459.70 435.46 469.02 435.49 C 474.11 435.12 478.39 440.16 477.88 445.08 C 477.46 449.94 472.82 453.78 468.05 453.86 C 459.06 454.15 450.07 453.95 441.08 453.96 C 441.08 447.83 441.07 441.71 441.08 435.59 Z" />
</g>
<g id="#0a0303ff">
<path fill="#0a0303" opacity="1.00" d=" M 329.01 28.00 C 332.53 23.51 337.02 19.07 343.02 18.53 C 349.48 18.37 354.38 23.18 358.11 27.89 C 394.84 79.07 432.01 129.92 468.88 180.99 C 476.26 191.61 484.02 201.95 491.64 212.39 C 495.90 219.02 501.84 224.41 505.79 231.25 C 509.12 237.05 506.24 244.34 501.36 248.28 C 510.42 251.71 517.88 258.55 523.82 266.08 C 527.13 269.69 528.71 274.41 531.38 278.46 C 533.15 283.47 535.40 288.48 535.72 293.87 C 537.28 302.59 536.03 311.49 534.52 320.12 C 541.00 320.09 547.48 320.10 553.96 320.09 C 564.49 319.66 575.27 325.11 580.74 334.21 C 584.84 340.75 589.10 347.19 593.77 353.35 C 617.73 386.86 642.34 419.92 665.61 453.92 C 650.88 453.98 636.14 453.80 621.41 453.69 C 623.10 456.81 624.42 460.10 625.42 463.51 C 628.50 470.66 627.67 478.57 627.66 486.14 C 627.10 489.57 626.72 493.06 625.54 496.35 C 624.83 498.12 624.79 500.45 622.80 501.36 C 621.47 504.92 619.13 507.97 617.63 511.44 C 612.46 516.70 607.44 522.31 600.90 525.91 C 596.14 529.04 590.61 530.53 585.24 532.21 C 582.20 533.09 579.11 533.91 575.93 533.86 C 548.63 533.78 521.32 533.87 494.02 533.82 C 486.47 533.70 478.82 534.45 471.48 532.28 C 466.34 531.95 463.14 527.61 459.77 524.31 C 459.75 527.48 459.75 530.65 459.77 533.82 C 435.60 534.10 411.41 534.19 387.24 533.82 C 387.23 529.34 387.19 524.86 387.27 520.39 C 382.24 523.46 377.51 527.17 371.89 529.12 C 364.31 532.31 356.19 534.12 348.02 534.73 C 341.69 534.42 335.25 535.40 329.02 533.97 C 318.82 532.24 308.78 528.76 300.27 522.78 C 296.64 521.24 294.93 517.13 291.26 515.76 C 290.15 514.18 289.01 512.62 287.85 511.09 C 280.04 518.99 270.46 525.01 260.13 529.03 C 256.48 530.11 252.76 530.97 249.14 532.18 C 245.89 533.38 242.33 532.58 239.04 533.67 C 228.60 534.11 217.88 534.21 207.90 530.74 C 196.15 528.13 185.83 521.43 176.62 513.91 C 176.69 520.64 176.59 527.38 176.68 534.11 C 148.78 533.92 120.88 534.06 92.98 534.04 C 93.28 522.37 92.24 510.71 92.91 499.05 C 93.10 484.86 92.98 470.67 92.98 456.49 C 68.60 456.49 44.23 456.50 19.85 456.49 C 36.03 432.62 53.11 409.40 69.85 385.94 C 81.48 371.42 91.25 355.46 102.93 340.97 C 106.04 336.46 108.41 331.28 112.70 327.72 C 117.45 323.50 123.60 320.94 129.88 320.18 C 137.41 319.99 144.94 320.13 152.48 320.12 C 149.27 304.76 149.63 287.71 158.17 274.06 C 160.80 268.17 165.26 263.36 169.68 258.76 C 174.52 254.64 179.49 250.25 185.66 248.30 C 182.08 245.29 179.57 240.86 179.74 236.10 C 180.13 231.64 183.11 228.10 185.77 224.73 C 195.05 213.57 203.10 201.46 211.90 189.91 C 250.88 135.90 290.14 82.09 329.01 28.00 M 335.77 27.84 C 299.93 77.63 263.88 127.28 227.95 177.02 C 214.48 195.41 201.29 214.06 186.90 231.74 C 185.48 233.14 184.22 234.95 184.10 237.00 C 185.46 242.49 190.10 246.14 193.89 249.98 C 189.03 253.19 183.27 254.93 178.98 259.02 C 158.61 273.82 150.94 303.06 160.98 326.11 C 151.31 325.76 141.64 326.26 131.97 326.18 C 124.30 326.16 116.84 330.39 112.92 336.98 C 110.76 340.72 107.21 343.32 104.87 346.92 C 97.00 358.02 88.87 368.93 81.14 380.13 C 78.66 383.01 76.39 386.05 74.23 389.18 C 59.41 409.79 44.43 430.30 30.02 451.20 C 52.81 451.30 75.59 451.22 98.38 451.24 C 98.45 477.03 98.38 502.82 98.39 528.61 C 122.65 528.58 146.92 528.71 171.18 528.55 C 170.89 518.62 170.93 508.67 171.18 498.73 C 174.91 502.13 177.30 506.68 180.94 510.14 C 188.92 516.78 197.85 522.73 208.09 525.10 C 220.23 529.31 233.46 529.45 246.08 527.66 C 255.73 525.27 265.60 522.64 273.80 516.77 C 276.63 514.21 280.17 512.55 282.88 509.83 C 285.17 507.93 286.75 504.49 290.24 504.92 C 292.84 509.53 297.12 512.64 300.75 516.35 C 310.82 524.17 323.40 528.20 336.00 529.41 C 341.61 529.37 347.25 529.65 352.85 529.21 C 362.89 527.33 373.14 524.67 381.51 518.55 C 385.83 516.45 388.52 512.37 391.96 509.20 C 393.07 515.57 392.57 522.14 392.76 528.60 C 413.26 528.61 433.76 528.65 454.26 528.60 C 454.35 522.89 454.29 517.17 454.55 511.47 C 456.69 512.99 457.87 515.47 460.10 516.88 C 463.97 519.95 466.10 524.79 470.27 527.52 C 474.83 528.33 479.37 529.63 484.05 529.36 C 512.00 530.94 540.04 529.57 568.01 530.67 C 577.52 530.79 586.73 528.01 595.43 524.41 C 606.22 518.67 615.53 509.20 619.26 497.39 C 621.82 491.99 622.45 485.88 623.10 480.00 C 621.63 469.25 620.64 457.66 613.39 448.96 C 627.48 449.31 641.57 448.72 655.66 448.64 C 628.38 410.50 601.04 372.39 573.39 334.54 C 569.19 329.35 562.69 326.16 556.00 326.18 C 546.01 326.25 536.01 325.77 526.02 326.11 C 536.06 303.06 528.38 273.81 508.00 259.01 C 503.72 254.91 497.92 253.21 493.08 249.92 C 497.15 246.11 501.64 242.16 503.11 236.54 C 502.23 234.32 500.88 232.40 499.16 230.76 C 486.07 214.10 473.45 197.07 461.22 179.76 C 425.76 130.59 390.09 81.56 354.66 32.35 C 352.39 29.36 350.57 25.60 346.89 24.13 C 342.90 22.25 338.12 24.37 335.77 27.84 Z" />
</g>
<g id="#ff3100ff">
<path fill="#ff3100" opacity="1.00" d=" M 339.85 46.93 C 339.74 44.35 341.94 42.70 343.74 41.27 C 345.62 43.05 347.73 45.10 347.46 47.95 C 347.33 59.96 347.46 71.98 347.26 84.00 C 346.43 91.01 347.37 98.04 346.90 105.07 C 346.82 122.37 346.67 139.68 346.86 156.98 C 348.24 187.97 350.61 219.68 362.82 248.58 C 350.02 248.77 337.22 248.63 324.42 248.65 C 331.46 231.16 335.63 212.62 337.66 193.90 C 339.15 178.65 340.32 163.36 340.39 148.03 C 340.47 114.32 339.80 80.64 339.85 46.93 Z" />
<path fill="#ff3100" opacity="1.00" d=" M 332.87 57.97 C 332.69 54.92 334.98 52.49 337.35 50.91 C 338.75 59.87 338.45 68.98 338.17 78.01 C 338.43 89.04 337.15 100.03 336.78 111.05 C 335.46 131.88 332.92 152.63 329.29 173.19 C 325.03 199.94 315.87 226.24 300.33 248.59 C 289.88 248.69 279.42 248.78 268.98 248.54 C 277.24 238.92 286.08 229.69 292.89 218.93 C 306.91 199.14 316.13 176.35 322.44 153.04 C 329.03 128.91 331.51 103.91 332.87 79.01 C 332.96 72.00 332.76 64.99 332.87 57.97 Z" />
<path fill="#ff3100" opacity="1.00" d=" M 350.01 50.78 C 352.41 52.89 354.81 55.55 354.39 59.02 C 353.60 104.85 359.68 151.80 379.47 193.58 C 387.50 210.28 398.06 225.76 410.32 239.64 C 412.96 242.59 415.72 245.42 418.18 248.53 C 407.69 248.77 397.19 248.73 386.70 248.53 C 372.67 228.06 363.64 204.41 359.07 180.08 C 354.17 153.61 350.86 126.81 349.82 99.90 C 348.69 89.63 349.19 79.29 348.87 68.98 C 348.96 62.91 348.52 56.73 350.01 50.78 Z" />
</g>
<g id="#3100ceff">
<path fill="#3100ce" opacity="1.00" d=" M 325.25 67.27 C 326.69 65.18 328.10 62.90 330.45 61.73 C 331.61 73.65 330.53 85.62 329.29 97.49 C 325.68 126.98 318.07 156.38 303.41 182.40 C 294.58 198.53 283.00 212.99 270.15 226.08 C 261.88 233.96 252.91 241.08 243.56 247.64 C 241.98 248.89 239.89 248.65 238.01 248.68 C 229.69 248.58 221.36 248.77 213.03 248.59 C 209.65 248.62 207.48 245.11 207.42 242.03 C 207.29 238.13 210.22 235.23 212.16 232.16 C 232.67 201.74 253.93 171.84 274.48 141.46 C 291.22 116.60 308.74 92.28 325.25 67.27 Z" />
<path fill="#3100ce" opacity="1.00" d=" M 356.75 84.95 C 356.19 77.15 355.47 69.18 357.11 61.47 C 360.85 65.01 363.28 69.57 366.19 73.75 C 384.33 100.59 403.03 127.04 421.18 153.87 C 440.13 181.84 459.79 209.33 478.52 237.45 C 480.80 241.04 479.77 246.85 475.54 248.45 C 466.37 248.97 457.15 248.48 447.96 248.69 C 446.12 248.86 444.33 248.35 442.90 247.18 C 430.95 238.66 419.42 229.37 409.71 218.31 C 388.31 195.19 373.10 166.57 365.25 136.10 C 360.83 119.37 357.78 102.23 356.75 84.95 Z" />
<path fill="#3100ce" opacity="1.00" d=" M 172.79 282.81 C 178.79 275.85 187.74 271.34 197.00 271.29 C 239.35 271.18 281.70 271.28 324.05 271.26 C 324.03 281.86 324.01 292.47 324.06 303.08 C 312.83 303.12 301.61 303.05 290.39 303.11 C 290.32 328.52 290.41 353.94 290.37 379.35 C 279.30 379.35 268.22 379.34 257.14 379.33 C 257.13 353.92 257.16 328.51 257.13 303.10 C 241.00 303.10 224.87 302.99 208.74 303.18 C 213.43 307.55 218.26 311.75 222.79 316.29 C 229.74 322.68 237.90 328.36 242.08 337.12 C 246.60 346.46 246.50 358.60 239.98 367.01 C 237.40 370.38 234.31 373.40 230.80 375.80 C 225.52 379.22 218.99 379.24 212.92 379.38 C 179.47 379.31 146.02 379.47 112.58 378.97 C 120.08 368.37 127.80 357.91 135.71 347.62 C 138.25 346.42 141.31 347.19 144.05 347.00 C 163.10 346.66 182.15 346.98 201.21 346.72 C 192.60 338.64 183.66 330.91 175.18 322.69 C 169.08 316.25 164.89 307.12 166.44 298.12 C 167.61 292.72 169.21 287.16 172.79 282.81 Z" />
<path fill="#3100ce" opacity="1.00" d=" M 338.22 271.23 C 350.49 271.27 362.76 271.27 375.03 271.25 C 386.83 307.56 399.23 343.69 411.34 379.92 C 399.40 379.98 387.47 380.02 375.54 379.86 C 374.33 374.46 373.09 369.04 371.19 363.84 C 361.69 363.75 352.19 363.96 342.70 363.76 C 340.69 369.01 339.19 374.45 337.67 379.87 C 325.80 379.97 313.93 380.01 302.06 379.92 C 309.71 358.37 316.95 336.67 324.02 314.92 C 325.69 307.71 329.07 301.06 330.94 293.91 C 333.14 286.28 335.95 278.84 338.22 271.23 M 356.56 309.71 C 353.86 318.23 351.66 326.90 349.43 335.55 C 354.29 335.63 359.16 335.60 364.03 335.56 C 362.15 326.79 359.66 318.12 356.56 309.71 Z" />
<path fill="#3100ce" opacity="1.00" d=" M 414.16 271.26 C 437.47 271.29 460.78 271.14 484.08 271.30 C 500.95 271.90 516.16 285.42 519.13 301.98 C 521.47 314.82 516.03 328.71 505.78 336.76 C 502.29 339.70 497.88 341.10 494.09 343.56 C 495.24 345.91 498.53 346.45 500.94 346.75 C 520.55 346.94 540.17 346.72 559.78 346.94 C 568.06 357.87 577.15 368.16 585.31 379.18 C 555.87 379.40 526.43 379.31 497.00 379.33 C 493.21 379.29 489.26 379.74 485.68 378.27 C 479.53 375.98 474.77 371.31 469.96 367.03 C 463.31 361.12 456.49 355.38 450.11 349.16 C 450.11 359.22 450.12 369.28 450.11 379.34 C 438.12 379.34 426.14 379.34 414.15 379.34 C 414.17 343.31 414.13 307.28 414.16 271.26 M 449.92 301.62 C 449.90 307.53 449.89 313.44 449.92 319.36 C 458.95 319.32 467.99 319.85 477.00 319.04 C 481.03 318.85 484.90 316.21 486.49 312.49 C 488.10 307.28 483.29 301.58 477.98 301.62 C 468.63 301.19 459.27 301.58 449.92 301.62 Z" />
<path fill="#3100ce" opacity="1.00" d=" M 185.63 443.52 C 192.88 416.28 223.56 397.74 251.01 405.00 C 265.00 408.46 277.67 417.50 284.95 430.02 C 293.50 443.68 295.02 461.03 290.51 476.34 C 285.43 492.62 272.02 505.72 256.08 511.44 C 247.34 514.85 237.83 514.73 228.62 514.24 C 225.33 512.63 221.62 512.17 218.32 510.57 C 200.36 503.09 185.66 485.94 184.34 466.09 C 183.92 458.57 183.49 450.84 185.63 443.52 M 232.47 436.55 C 226.12 438.80 220.63 443.61 217.76 449.73 C 215.38 454.52 215.76 460.14 216.82 465.22 C 219.12 475.23 229.07 482.16 239.03 482.68 C 251.52 481.71 262.37 469.59 260.95 456.90 C 260.51 449.26 255.40 442.80 249.16 438.78 C 244.41 435.20 238.01 435.44 232.47 436.55 Z" />
<path fill="#3100ce" opacity="1.00" d=" M 92.24 407.41 C 93.03 406.57 93.63 404.99 95.06 405.25 C 125.34 405.24 155.63 405.26 185.91 405.24 C 185.90 415.85 185.88 426.45 185.92 437.06 C 173.42 437.11 160.92 436.99 148.43 437.14 C 148.54 462.98 148.40 488.82 148.52 514.66 C 137.39 514.81 126.27 514.69 115.14 514.72 C 115.13 488.84 115.14 462.96 115.14 437.08 C 100.28 437.04 85.43 437.14 70.58 436.97 C 77.57 426.95 84.99 417.24 92.24 407.41 Z" />
<path fill="#3100ce" opacity="1.00" d=" M 301.02 405.24 C 312.73 405.26 324.45 405.25 336.17 405.24 C 336.32 427.85 335.89 450.47 336.30 473.07 C 336.06 481.53 347.32 487.39 354.05 482.17 C 358.74 479.53 360.19 473.94 360.17 468.92 C 360.33 447.70 360.13 426.48 360.23 405.25 C 371.76 405.23 383.30 405.25 394.83 405.25 C 394.80 427.83 394.89 450.40 394.81 472.98 C 394.73 491.15 380.62 507.41 363.52 512.30 C 353.43 516.02 342.07 515.61 331.93 512.27 C 317.98 507.72 306.21 496.21 302.30 481.94 C 300.78 476.76 301.12 471.32 301.04 465.99 C 300.85 445.74 301.05 425.49 301.02 405.24 Z" />
<path fill="#3100ce" opacity="1.00" d=" M 405.30 405.28 C 428.54 405.25 451.79 405.15 475.04 405.30 C 486.18 406.29 497.48 411.61 503.84 421.10 C 510.71 430.22 512.37 442.70 509.40 453.58 C 507.27 459.98 503.36 465.82 498.34 470.32 C 494.41 473.76 489.31 475.31 484.99 478.15 C 488.26 480.22 492.17 480.91 495.99 480.86 C 516.15 480.76 536.31 480.93 556.46 480.66 C 547.41 470.62 535.39 463.61 527.25 452.70 C 517.07 439.43 521.90 417.42 536.95 409.92 C 542.79 406.79 549.40 405.00 556.05 405.22 C 569.40 405.33 582.76 405.09 596.11 405.27 C 597.97 405.01 599.05 406.71 600.12 407.92 C 607.80 417.69 615.68 427.30 623.38 437.05 C 603.77 437.13 584.16 436.96 564.56 437.23 C 572.12 445.11 580.43 452.21 588.38 459.67 C 592.48 463.31 596.06 467.64 598.25 472.70 C 603.17 483.88 600.52 498.10 591.29 506.29 C 584.40 513.10 574.26 514.60 564.99 514.73 C 540.33 514.73 515.68 514.70 491.03 514.76 C 482.02 514.91 472.80 511.92 466.12 505.78 C 457.97 498.34 449.97 490.73 441.42 483.75 C 441.39 494.03 441.10 504.31 441.44 514.58 C 429.39 514.88 417.33 514.69 405.28 514.67 C 405.29 478.21 405.27 441.74 405.30 405.28 M 441.08 435.59 C 441.07 441.71 441.08 447.83 441.08 453.96 C 450.07 453.95 459.06 454.15 468.05 453.86 C 472.82 453.78 477.46 449.94 477.88 445.08 C 478.39 440.16 474.11 435.12 469.02 435.49 C 459.70 435.46 450.39 435.50 441.08 435.59 Z" />
</g>
</svg>
